<svg xmlns="http://www.w3.org/2000/svg" xmlns:xlink="http://www.w3.org/1999/xlink" width="500" zoomAndPan="magnify" viewBox="0 0 375 374.999991" height="500" preserveAspectRatio="xMidYMid meet" version="1.2"><defs><clipPath id="efe3e0951e"><path d="M 126.15625 150.214844 L 249 150.214844 L 249 235.714844 L 126.15625 235.714844 Z M 126.15625 150.214844 "/></clipPath><clipPath id="2e33d438f1"><path d="M 143 113 L 232 113 L 232 202.894531 L 143 202.894531 Z M 143 113 "/></clipPath><clipPath id="f355c1952a"><path d="M 141.625 86.644531 L 233.125 86.644531 L 233.125 120 L 141.625 120 Z M 141.625 86.644531 "/></clipPath></defs><g id="6462acc0bf"><g clip-rule="nonzero" clip-path="url(#efe3e0951e)"><path style=" stroke:none;fill-rule:evenodd;fill:#ffbd59;fill-opacity:1;" d="M 162.992188 150.367188 C 162.882812 150.378906 162.535156 150.417969 162.222656 150.453125 C 160.164062 150.671875 158.792969 151.054688 155.988281 152.183594 C 147.816406 155.480469 140.148438 157.328125 134 157.488281 L 132.703125 157.523438 L 132.703125 226.050781 L 132.832031 226.050781 C 133.058594 226.050781 134.96875 225.824219 136.234375 225.648438 C 143.082031 224.691406 150.34375 222.882812 155.988281 220.726562 C 158.523438 219.757812 159.933594 219.402344 161.964844 219.21875 C 168.273438 218.65625 177.308594 221.082031 185.597656 225.570312 C 186.089844 225.832031 186.503906 226.050781 186.523438 226.050781 C 186.542969 226.050781 186.558594 210.628906 186.558594 191.78125 L 186.558594 157.515625 L 185.777344 157.035156 C 179.988281 153.503906 173.65625 151.1875 167.828125 150.472656 C 167.105469 150.382812 163.535156 150.304688 162.992188 150.367188 M 209.046875 150.367188 C 208.9375 150.378906 208.566406 150.417969 208.222656 150.449219 C 202.609375 150.980469 195.539062 153.574219 189.507812 157.3125 L 189.238281 157.476562 L 189.238281 191.769531 C 189.234375 210.628906 189.253906 226.050781 189.277344 226.039062 C 189.304688 226.03125 189.742188 225.792969 190.25 225.515625 C 197.808594 221.414062 205.949219 219.066406 212.234375 219.179688 C 215.140625 219.230469 216.496094 219.5 219.492188 220.625 C 225.03125 222.703125 230.898438 224.25 237.113281 225.277344 C 239.261719 225.628906 242.429688 226.050781 242.949219 226.050781 L 243.089844 226.050781 L 243.089844 157.523438 L 241.738281 157.488281 C 235.640625 157.328125 227.660156 155.40625 219.804688 152.199219 C 217.132812 151.109375 215.976562 150.777344 213.773438 150.472656 C 213.152344 150.382812 209.59375 150.308594 209.046875 150.367188 M 129.742188 161.667969 C 129.507812 161.691406 128.605469 161.726562 127.738281 161.75 L 126.15625 161.792969 L 126.15625 235.785156 L 126.402344 235.785156 C 126.765625 235.785156 129.515625 235.464844 131.109375 235.238281 C 138.832031 234.140625 146.15625 232.375 152.773438 230.023438 C 156.230469 228.792969 157.914062 228.449219 161.03125 228.347656 C 167.847656 228.128906 177.28125 230.664062 186.054688 235.082031 C 186.824219 235.46875 187.46875 235.785156 187.488281 235.785156 C 187.507812 235.785156 188.328125 235.390625 189.304688 234.90625 C 199.402344 229.925781 209.378906 227.605469 216.617188 228.550781 C 218.507812 228.796875 219.570312 229.078125 222.253906 230.03125 C 228.757812 232.347656 236.132812 234.128906 243.6875 235.210938 C 245.597656 235.480469 248.191406 235.785156 248.621094 235.785156 L 248.839844 235.785156 L 248.839844 161.777344 L 247.800781 161.773438 C 246.863281 161.773438 246.359375 161.75 244.785156 161.628906 L 244.285156 161.589844 L 244.285156 228.328125 L 244.070312 228.328125 C 243.234375 228.328125 238.679688 227.699219 235.808594 227.1875 C 229.851562 226.125 224.714844 224.78125 219.410156 222.886719 C 217.746094 222.296875 216.929688 222.058594 215.78125 221.839844 C 208.796875 220.511719 198.882812 222.636719 188.953125 227.597656 L 187.503906 228.320312 L 185.90625 227.53125 C 176.425781 222.839844 167.003906 220.691406 160.230469 221.671875 C 158.570312 221.910156 157.691406 222.140625 155.648438 222.871094 C 148.203125 225.53125 138.046875 227.789062 131.234375 228.304688 L 130.710938 228.34375 L 130.710938 161.605469 L 130.441406 161.613281 C 130.292969 161.621094 129.980469 161.644531 129.742188 161.667969 "/></g><g clip-rule="nonzero" clip-path="url(#2e33d438f1)"><path style=" stroke:none;fill-rule:nonzero;fill:#ff914d;fill-opacity:1;" d="M 227.035156 148.242188 C 227.035156 147.664062 227.109375 147.011719 227.109375 146.433594 C 227.109375 137.554688 223.496094 128.671875 216.78125 122.605469 C 209.054688 115.601562 197.644531 113.289062 187.464844 113.289062 C 167.386719 113.289062 147.890625 124.339844 147.890625 146.433594 C 147.890625 147.011719 147.890625 147.589844 147.964844 148.242188 C 143.558594 150.046875 142.546875 161.601562 145.796875 174.742188 C 149.117188 188.316406 154.96875 199.003906 159.734375 197.851562 C 162.042969 197.273438 163.632812 194.09375 164.355469 189.472656 C 170.855469 197.417969 178.941406 202.90625 187.609375 202.90625 C 196.273438 202.90625 204.359375 197.417969 210.859375 189.472656 C 211.367188 192.722656 212.304688 195.25 213.605469 196.695312 C 213.964844 197.273438 214.472656 197.632812 214.902344 197.777344 C 214.976562 197.777344 215.046875 197.777344 215.191406 197.851562 C 215.265625 197.851562 215.335938 197.921875 215.480469 197.921875 C 220.246094 199.078125 226.097656 188.316406 229.417969 174.816406 C 232.523438 161.527344 231.511719 149.902344 227.035156 148.242188 Z M 227.035156 148.242188 "/></g><path style=" stroke:none;fill-rule:nonzero;fill:#ffffff;fill-opacity:1;" d="M 178.726562 172.648438 L 185.945312 168.316406 L 182.335938 172.144531 L 178.726562 175.96875 L 175.113281 172.144531 L 171.503906 168.316406 Z M 178.726562 172.648438 "/><path style=" stroke:none;fill-rule:nonzero;fill:#ffffff;fill-opacity:1;" d="M 163.273438 172.648438 L 170.492188 168.316406 L 166.882812 172.144531 L 163.273438 175.96875 L 159.660156 172.144531 L 156.050781 168.316406 Z M 163.273438 172.648438 "/><path style=" stroke:none;fill-rule:nonzero;fill:#ffffff;fill-opacity:1;" d="M 196.488281 173.007812 L 203.710938 168.675781 L 200.101562 172.503906 L 196.488281 176.332031 L 189.269531 168.675781 Z M 196.488281 173.007812 "/><path style=" stroke:none;fill-rule:nonzero;fill:#ffffff;fill-opacity:1;" d="M 211.800781 173.007812 L 219.019531 168.675781 L 211.800781 176.332031 L 208.1875 172.503906 L 204.578125 168.675781 Z M 211.800781 173.007812 "/><path style=" stroke:none;fill-rule:nonzero;fill:#ffffff;fill-opacity:1;" d="M 171.503906 183.191406 L 178.726562 178.859375 L 175.113281 182.6875 L 171.503906 186.511719 L 167.894531 182.6875 L 164.285156 178.859375 Z M 171.503906 183.191406 "/><path style=" stroke:none;fill-rule:nonzero;fill:#ffffff;fill-opacity:1;" d="M 187.679688 183.191406 L 194.902344 178.859375 L 191.289062 182.6875 L 187.679688 186.511719 L 184.070312 182.6875 L 180.457031 178.859375 Z M 187.679688 183.191406 "/><path style=" stroke:none;fill-rule:nonzero;fill:#ffffff;fill-opacity:1;" d="M 204.144531 183.191406 L 211.367188 178.859375 L 207.753906 182.6875 L 204.144531 186.511719 L 200.535156 182.6875 L 196.921875 178.859375 Z M 204.144531 183.191406 "/><path style=" stroke:none;fill-rule:nonzero;fill:#ffffff;fill-opacity:1;" d="M 180.457031 192.652344 L 187.679688 188.316406 L 184.070312 192.144531 L 180.457031 195.972656 L 173.238281 188.316406 Z M 180.457031 192.652344 "/><path style=" stroke:none;fill-rule:nonzero;fill:#ffffff;fill-opacity:1;" d="M 195.984375 192.652344 L 203.207031 188.316406 L 199.59375 192.144531 L 195.984375 195.972656 L 192.375 192.144531 L 188.761719 188.316406 Z M 195.984375 192.652344 "/><path style=" stroke:none;fill-rule:nonzero;fill:#ffffff;fill-opacity:1;" d="M 193.3125 155.605469 L 187.535156 154.304688 L 181.757812 155.605469 L 182.046875 155.824219 L 181.757812 155.824219 L 184.648438 159.722656 L 187.535156 163.621094 L 190.425781 159.722656 L 193.3125 155.824219 L 193.023438 155.824219 Z M 193.3125 155.605469 "/><path style=" stroke:none;fill-rule:nonzero;fill:#ffffff;fill-opacity:1;" d="M 186.019531 142.535156 C 186.019531 143.523438 185.921875 144.5 185.730469 145.464844 C 185.539062 146.433594 185.253906 147.371094 184.875 148.285156 C 184.5 149.195312 184.035156 150.058594 183.488281 150.878906 C 182.941406 151.699219 182.316406 152.460938 181.621094 153.15625 C 180.921875 153.855469 180.164062 154.476562 179.34375 155.023438 C 178.523438 155.574219 177.65625 156.035156 176.746094 156.414062 C 175.835938 156.789062 174.898438 157.074219 173.929688 157.265625 C 172.960938 157.460938 171.984375 157.554688 171 157.554688 C 170.011719 157.554688 169.035156 157.460938 168.070312 157.265625 C 167.101562 157.074219 166.164062 156.789062 165.25 156.414062 C 164.339844 156.035156 163.472656 155.574219 162.65625 155.023438 C 161.835938 154.476562 161.074219 153.855469 160.378906 153.15625 C 159.679688 152.460938 159.058594 151.699219 158.511719 150.878906 C 157.960938 150.058594 157.5 149.195312 157.121094 148.285156 C 156.746094 147.371094 156.460938 146.433594 156.265625 145.464844 C 156.074219 144.5 155.980469 143.523438 155.980469 142.535156 C 155.980469 141.550781 156.074219 140.574219 156.265625 139.605469 C 156.460938 138.636719 156.746094 137.699219 157.121094 136.789062 C 157.5 135.875 157.960938 135.011719 158.511719 134.191406 C 159.058594 133.371094 159.679688 132.613281 160.378906 131.914062 C 161.074219 131.21875 161.835938 130.59375 162.65625 130.046875 C 163.472656 129.5 164.339844 129.035156 165.25 128.660156 C 166.164062 128.28125 167.101562 127.996094 168.070312 127.804688 C 169.035156 127.613281 170.011719 127.515625 171 127.515625 C 171.984375 127.515625 172.960938 127.613281 173.929688 127.804688 C 174.898438 127.996094 175.835938 128.28125 176.746094 128.660156 C 177.65625 129.035156 178.523438 129.5 179.34375 130.046875 C 180.164062 130.59375 180.921875 131.21875 181.621094 131.914062 C 182.316406 132.613281 182.941406 133.371094 183.488281 134.191406 C 184.035156 135.011719 184.5 135.875 184.875 136.789062 C 185.253906 137.699219 185.539062 138.636719 185.730469 139.605469 C 185.921875 140.574219 186.019531 141.550781 186.019531 142.535156 Z M 186.019531 142.535156 "/><path style=" stroke:none;fill-rule:nonzero;fill:#020000;fill-opacity:1;" d="M 178.652344 142.535156 C 178.652344 143.039062 178.605469 143.535156 178.507812 144.027344 C 178.410156 144.523438 178.261719 145 178.070312 145.464844 C 177.878906 145.929688 177.644531 146.371094 177.363281 146.789062 C 177.085938 147.207031 176.765625 147.59375 176.410156 147.949219 C 176.054688 148.304688 175.667969 148.621094 175.25 148.898438 C 174.832031 149.179688 174.394531 149.414062 173.929688 149.609375 C 173.464844 149.800781 172.984375 149.945312 172.492188 150.042969 C 172 150.140625 171.5 150.191406 171 150.191406 C 170.496094 150.191406 170 150.140625 169.503906 150.042969 C 169.011719 149.945312 168.535156 149.800781 168.070312 149.609375 C 167.605469 149.414062 167.164062 149.179688 166.746094 148.898438 C 166.328125 148.621094 165.941406 148.304688 165.585938 147.949219 C 165.230469 147.59375 164.914062 147.207031 164.632812 146.789062 C 164.355469 146.371094 164.121094 145.929688 163.925781 145.464844 C 163.734375 145 163.589844 144.523438 163.492188 144.027344 C 163.394531 143.535156 163.34375 143.039062 163.34375 142.535156 C 163.34375 142.03125 163.394531 141.535156 163.492188 141.042969 C 163.589844 140.550781 163.734375 140.070312 163.925781 139.605469 C 164.121094 139.140625 164.355469 138.699219 164.632812 138.28125 C 164.914062 137.863281 165.230469 137.476562 165.585938 137.125 C 165.941406 136.769531 166.328125 136.449219 166.746094 136.171875 C 167.164062 135.890625 167.605469 135.65625 168.070312 135.464844 C 168.535156 135.269531 169.011719 135.125 169.503906 135.027344 C 170 134.929688 170.496094 134.882812 171 134.882812 C 171.5 134.882812 172 134.929688 172.492188 135.027344 C 172.984375 135.125 173.464844 135.269531 173.929688 135.464844 C 174.394531 135.65625 174.832031 135.890625 175.25 136.171875 C 175.667969 136.449219 176.054688 136.769531 176.410156 137.125 C 176.765625 137.476562 177.085938 137.863281 177.363281 138.28125 C 177.644531 138.699219 177.878906 139.140625 178.070312 139.605469 C 178.261719 140.070312 178.410156 140.550781 178.507812 141.042969 C 178.605469 141.535156 178.652344 142.03125 178.652344 142.535156 Z M 178.652344 142.535156 "/><path style=" stroke:none;fill-rule:nonzero;fill:#ffffff;fill-opacity:1;" d="M 176.125 145.136719 C 176.125 145.605469 176.035156 146.054688 175.855469 146.488281 C 175.675781 146.921875 175.421875 147.304688 175.089844 147.636719 C 174.757812 147.96875 174.375 148.226562 173.941406 148.40625 C 173.507812 148.582031 173.058594 148.671875 172.585938 148.671875 C 172.117188 148.671875 171.667969 148.582031 171.234375 148.40625 C 170.800781 148.226562 170.417969 147.96875 170.085938 147.636719 C 169.753906 147.304688 169.5 146.921875 169.320312 146.488281 C 169.140625 146.054688 169.050781 145.605469 169.050781 145.136719 C 169.050781 144.667969 169.140625 144.214844 169.320312 143.78125 C 169.5 143.347656 169.753906 142.964844 170.085938 142.632812 C 170.417969 142.300781 170.800781 142.046875 171.234375 141.867188 C 171.667969 141.6875 172.117188 141.597656 172.585938 141.597656 C 173.058594 141.597656 173.507812 141.6875 173.941406 141.867188 C 174.375 142.046875 174.757812 142.300781 175.089844 142.632812 C 175.421875 142.964844 175.675781 143.347656 175.855469 143.78125 C 176.035156 144.214844 176.125 144.667969 176.125 145.136719 Z M 176.125 145.136719 "/><path style=" stroke:none;fill-rule:nonzero;fill:#ffffff;fill-opacity:1;" d="M 219.09375 142.535156 C 219.09375 143.523438 218.996094 144.5 218.804688 145.464844 C 218.613281 146.433594 218.328125 147.371094 217.949219 148.285156 C 217.570312 149.195312 217.109375 150.058594 216.5625 150.878906 C 216.011719 151.699219 215.390625 152.460938 214.691406 153.15625 C 213.996094 153.855469 213.238281 154.476562 212.417969 155.023438 C 211.597656 155.574219 210.730469 156.035156 209.820312 156.414062 C 208.910156 156.789062 207.96875 157.074219 207.003906 157.265625 C 206.035156 157.460938 205.058594 157.554688 204.074219 157.554688 C 203.085938 157.554688 202.109375 157.460938 201.140625 157.265625 C 200.175781 157.074219 199.234375 156.789062 198.324219 156.414062 C 197.414062 156.035156 196.546875 155.574219 195.726562 155.023438 C 194.90625 154.476562 194.148438 153.855469 193.453125 153.15625 C 192.753906 152.460938 192.132812 151.699219 191.582031 150.878906 C 191.035156 150.058594 190.574219 149.195312 190.195312 148.285156 C 189.816406 147.371094 189.53125 146.433594 189.339844 145.464844 C 189.148438 144.5 189.050781 143.523438 189.050781 142.535156 C 189.050781 141.550781 189.148438 140.574219 189.339844 139.605469 C 189.53125 138.636719 189.816406 137.699219 190.195312 136.789062 C 190.574219 135.875 191.035156 135.011719 191.582031 134.191406 C 192.132812 133.371094 192.753906 132.613281 193.453125 131.914062 C 194.148438 131.21875 194.90625 130.59375 195.726562 130.046875 C 196.546875 129.5 197.414062 129.035156 198.324219 128.660156 C 199.234375 128.28125 200.175781 127.996094 201.140625 127.804688 C 202.109375 127.613281 203.085938 127.515625 204.074219 127.515625 C 205.058594 127.515625 206.035156 127.613281 207.003906 127.804688 C 207.96875 127.996094 208.910156 128.28125 209.820312 128.660156 C 210.730469 129.035156 211.597656 129.5 212.417969 130.046875 C 213.238281 130.59375 213.996094 131.21875 214.691406 131.914062 C 215.390625 132.613281 216.011719 133.371094 216.5625 134.191406 C 217.109375 135.011719 217.570312 135.875 217.949219 136.789062 C 218.328125 137.699219 218.613281 138.636719 218.804688 139.605469 C 218.996094 140.574219 219.09375 141.550781 219.09375 142.535156 Z M 219.09375 142.535156 "/><path style=" stroke:none;fill-rule:nonzero;fill:#020000;fill-opacity:1;" d="M 211.726562 142.535156 C 211.726562 143.039062 211.675781 143.535156 211.578125 144.027344 C 211.480469 144.523438 211.335938 145 211.144531 145.464844 C 210.953125 145.929688 210.714844 146.371094 210.4375 146.789062 C 210.15625 147.207031 209.839844 147.59375 209.484375 147.949219 C 209.128906 148.304688 208.742188 148.621094 208.324219 148.898438 C 207.90625 149.179688 207.464844 149.414062 207 149.609375 C 206.539062 149.800781 206.058594 149.945312 205.566406 150.042969 C 205.074219 150.140625 204.574219 150.191406 204.074219 150.191406 C 203.570312 150.191406 203.070312 150.140625 202.578125 150.042969 C 202.085938 149.945312 201.605469 149.800781 201.144531 149.609375 C 200.679688 149.414062 200.238281 149.179688 199.820312 148.898438 C 199.402344 148.621094 199.015625 148.304688 198.660156 147.949219 C 198.304688 147.59375 197.988281 147.207031 197.707031 146.789062 C 197.429688 146.371094 197.191406 145.929688 197 145.464844 C 196.808594 145 196.664062 144.523438 196.566406 144.027344 C 196.464844 143.535156 196.417969 143.039062 196.417969 142.535156 C 196.417969 142.03125 196.464844 141.535156 196.566406 141.042969 C 196.664062 140.550781 196.808594 140.070312 197 139.605469 C 197.191406 139.140625 197.429688 138.699219 197.707031 138.28125 C 197.988281 137.863281 198.304688 137.476562 198.660156 137.125 C 199.015625 136.769531 199.402344 136.449219 199.820312 136.171875 C 200.238281 135.890625 200.679688 135.65625 201.144531 135.464844 C 201.605469 135.269531 202.085938 135.125 202.578125 135.027344 C 203.070312 134.929688 203.570312 134.882812 204.074219 134.882812 C 204.574219 134.882812 205.074219 134.929688 205.566406 135.027344 C 206.058594 135.125 206.539062 135.269531 207 135.464844 C 207.464844 135.65625 207.90625 135.890625 208.324219 136.171875 C 208.742188 136.449219 209.128906 136.769531 209.484375 137.125 C 209.839844 137.476562 210.15625 137.863281 210.4375 138.28125 C 210.714844 138.699219 210.953125 139.140625 211.144531 139.605469 C 211.335938 140.070312 211.480469 140.550781 211.578125 141.042969 C 211.675781 141.535156 211.726562 142.03125 211.726562 142.535156 Z M 211.726562 142.535156 "/><path style=" stroke:none;fill-rule:nonzero;fill:#ffffff;fill-opacity:1;" d="M 206.023438 145.136719 C 206.023438 145.605469 205.933594 146.054688 205.753906 146.488281 C 205.574219 146.921875 205.316406 147.304688 204.984375 147.636719 C 204.652344 147.96875 204.269531 148.226562 203.835938 148.40625 C 203.402344 148.582031 202.953125 148.671875 202.484375 148.671875 C 202.015625 148.671875 201.5625 148.582031 201.128906 148.40625 C 200.695312 148.226562 200.3125 147.96875 199.980469 147.636719 C 199.648438 147.304688 199.394531 146.921875 199.214844 146.488281 C 199.035156 146.054688 198.945312 145.605469 198.945312 145.136719 C 198.945312 144.667969 199.035156 144.214844 199.214844 143.78125 C 199.394531 143.347656 199.648438 142.964844 199.980469 142.632812 C 200.3125 142.300781 200.695312 142.046875 201.128906 141.867188 C 201.5625 141.6875 202.015625 141.597656 202.484375 141.597656 C 202.953125 141.597656 203.402344 141.6875 203.835938 141.867188 C 204.269531 142.046875 204.652344 142.300781 204.984375 142.632812 C 205.316406 142.964844 205.574219 143.347656 205.753906 143.78125 C 205.933594 144.214844 206.023438 144.667969 206.023438 145.136719 Z M 206.023438 145.136719 "/><g clip-rule="nonzero" clip-path="url(#f355c1952a)"><path style=" stroke:none;fill-rule:nonzero;fill:#020000;fill-opacity:1;" d="M 232.957031 100.871094 L 188.472656 86.644531 L 142.113281 100.871094 L 141.679688 101.085938 L 142.113281 101.300781 L 161.828125 110.691406 C 161.828125 110.90625 161.757812 111.125 161.757812 111.414062 L 161.757812 119.066406 C 168.976562 114.300781 178.148438 111.917969 187.464844 111.917969 C 196.128906 111.917969 205.734375 113.652344 213.171875 118.488281 L 213.171875 111.339844 C 213.171875 111.195312 213.171875 110.980469 213.171875 110.835938 L 232.886719 101.230469 L 233.316406 101.011719 Z M 232.957031 100.871094 "/></g><path style=" stroke:none;fill-rule:nonzero;fill:#ffffff;fill-opacity:1;" d="M 149.117188 100.796875 C 150.78125 101.085938 149.117188 104.046875 149.117188 104.046875 C 149.117188 104.046875 147.53125 101.085938 149.117188 100.796875 Z M 149.117188 100.796875 "/><path style=" stroke:none;fill-rule:nonzero;fill:#ff914d;fill-opacity:1;" d="M 149.117188 103.972656 L 150.851562 125.636719 L 147.457031 125.636719 Z M 149.117188 103.972656 "/><g style="fill:#ff914d;fill-opacity:1;"><g transform="translate(72.726021, 270.306618)"><path style="stroke:none" d="M 1.203125 -0.875 L 3.28125 -1.3125 C 3.914062 -1.445312 4.378906 -1.585938 4.671875 -1.734375 C 4.972656 -1.878906 5.175781 -2.09375 5.28125 -2.375 C 5.382812 -2.65625 5.4375 -3.09375 5.4375 -3.6875 L 5.4375 -23.234375 C 5.4375 -23.828125 5.382812 -24.257812 5.28125 -24.53125 C 5.175781 -24.8125 4.972656 -25.023438 4.671875 -25.171875 C 4.378906 -25.328125 3.914062 -25.46875 3.28125 -25.59375 L 1.203125 -26.046875 L 1.203125 -26.921875 L 24.125 -26.921875 C 23.988281 -26.273438 23.921875 -25.539062 23.921875 -24.71875 C 23.921875 -23.78125 24.003906 -22.796875 24.171875 -21.765625 C 24.347656 -20.742188 24.460938 -20.101562 24.515625 -19.84375 L 23.640625 -19.84375 C 22.921875 -21.550781 21.945312 -22.9375 20.71875 -24 C 19.488281 -25.0625 18.035156 -25.59375 16.359375 -25.59375 L 10.953125 -25.59375 L 10.953125 -14.875 L 16.125 -14.875 C 17.425781 -14.875 18.367188 -15.128906 18.953125 -15.640625 C 19.546875 -16.148438 19.921875 -16.910156 20.078125 -17.921875 L 20.40625 -19.765625 L 21.28125 -19.765625 L 21.28125 -8.6875 L 20.40625 -8.6875 L 20.046875 -10.59375 C 19.878906 -11.582031 19.507812 -12.320312 18.9375 -12.8125 C 18.363281 -13.3125 17.453125 -13.5625 16.203125 -13.5625 L 10.953125 -13.5625 L 10.953125 -4.71875 C 10.953125 -3.78125 11 -3.09375 11.09375 -2.65625 C 11.1875 -2.21875 11.429688 -1.882812 11.828125 -1.65625 C 12.234375 -1.425781 12.878906 -1.3125 13.765625 -1.3125 L 16.71875 -1.3125 C 18.101562 -1.3125 19.300781 -1.601562 20.3125 -2.1875 C 21.332031 -2.78125 22.242188 -3.648438 23.046875 -4.796875 L 24.71875 -7.203125 L 25.59375 -7.203125 C 24.925781 -4.398438 24.59375 -2 24.59375 0 L 1.203125 0 Z M 1.203125 -0.875 "/></g></g><g style="fill:#ff914d;fill-opacity:1;"><g transform="translate(99.563354, 270.306618)"><path style="stroke:none" d="M 9.765625 0.3125 C 7.867188 0.3125 6.257812 -0.0820312 4.9375 -0.875 C 3.613281 -1.675781 2.632812 -2.75 2 -4.09375 C 1.363281 -5.445312 1.046875 -6.921875 1.046875 -8.515625 C 1.046875 -10.140625 1.378906 -11.671875 2.046875 -13.109375 C 2.710938 -14.554688 3.710938 -15.734375 5.046875 -16.640625 C 6.378906 -17.546875 8.003906 -18 9.921875 -18 C 10.773438 -18 11.609375 -17.90625 12.421875 -17.71875 C 13.234375 -17.53125 13.929688 -17.289062 14.515625 -17 L 14.515625 -24.3125 C 14.515625 -24.851562 14.425781 -25.222656 14.25 -25.421875 C 14.082031 -25.617188 13.8125 -25.757812 13.4375 -25.84375 L 12.125 -26.15625 L 12.125 -26.875 C 13.832031 -27.113281 15.1875 -27.328125 16.1875 -27.515625 C 17.1875 -27.703125 18.21875 -28 19.28125 -28.40625 L 19.6875 -28.078125 C 19.3125 -27.460938 19.125 -26.332031 19.125 -24.6875 L 19.125 -3.796875 C 19.125 -2.921875 19.347656 -2.296875 19.796875 -1.921875 C 20.253906 -1.546875 21.015625 -1.375 22.078125 -1.40625 L 22.078125 -0.359375 C 20.585938 -0.273438 18.988281 -0.113281 17.28125 0.125 L 15.6875 0.3125 L 15.28125 0.125 L 14.953125 -2.078125 L 14.796875 -2.078125 L 11.28125 -0.125 C 10.75 0.164062 10.242188 0.3125 9.765625 0.3125 Z M 11.046875 -2.484375 C 12.078125 -2.484375 12.910156 -2.816406 13.546875 -3.484375 C 14.191406 -4.148438 14.515625 -4.972656 14.515625 -5.953125 L 14.515625 -11.4375 C 14.515625 -12.375 14.328125 -13.238281 13.953125 -14.03125 C 13.585938 -14.832031 13.085938 -15.46875 12.453125 -15.9375 C 11.828125 -16.40625 11.171875 -16.640625 10.484375 -16.640625 C 9.035156 -16.640625 7.929688 -16 7.171875 -14.71875 C 6.421875 -13.4375 6.046875 -11.863281 6.046875 -10 C 6.046875 -7.894531 6.46875 -6.113281 7.3125 -4.65625 C 8.164062 -3.207031 9.410156 -2.484375 11.046875 -2.484375 Z M 11.046875 -2.484375 "/></g></g><g style="fill:#ff914d;fill-opacity:1;"><g transform="translate(121.761137, 270.306618)"><path style="stroke:none" d="M 18.765625 -3.796875 C 18.765625 -2.921875 18.988281 -2.296875 19.4375 -1.921875 C 19.894531 -1.546875 20.65625 -1.375 21.71875 -1.40625 L 21.71875 -0.359375 C 20.226562 -0.273438 18.628906 -0.113281 16.921875 0.125 L 15.3125 0.3125 L 14.921875 0.125 L 14.515625 -2.515625 L 14.203125 -2.515625 C 12.765625 -1.929688 11.070312 -1.050781 9.125 0.125 C 8.90625 0.25 8.703125 0.3125 8.515625 0.3125 C 6.703125 0.3125 5.296875 -0.164062 4.296875 -1.125 C 3.296875 -2.082031 2.796875 -3.453125 2.796875 -5.234375 L 2.796875 -14.6875 C 2.796875 -15.21875 2.707031 -15.585938 2.53125 -15.796875 C 2.363281 -16.015625 2.09375 -16.175781 1.71875 -16.28125 L 0.40625 -16.59375 L 0.40625 -17.3125 C 1.976562 -17.425781 3.242188 -17.546875 4.203125 -17.671875 C 5.160156 -17.804688 6.265625 -18.019531 7.515625 -18.3125 L 7.921875 -18 C 7.765625 -17.707031 7.640625 -17.253906 7.546875 -16.640625 C 7.453125 -16.023438 7.40625 -15.375 7.40625 -14.6875 L 7.40625 -6.6875 C 7.40625 -5.507812 7.691406 -4.597656 8.265625 -3.953125 C 8.835938 -3.316406 9.65625 -3 10.71875 -3 C 11.78125 -3 12.617188 -3.332031 13.234375 -4 C 13.847656 -4.664062 14.15625 -5.5625 14.15625 -6.6875 L 14.15625 -14.6875 C 14.15625 -15.21875 14.066406 -15.585938 13.890625 -15.796875 C 13.722656 -16.015625 13.453125 -16.175781 13.078125 -16.28125 L 11.796875 -16.59375 L 11.796875 -17.3125 C 13.367188 -17.425781 14.632812 -17.546875 15.59375 -17.671875 C 16.5625 -17.804688 17.671875 -18.019531 18.921875 -18.3125 L 19.3125 -18 C 19.132812 -17.707031 19 -17.257812 18.90625 -16.65625 C 18.8125 -16.0625 18.765625 -15.40625 18.765625 -14.6875 Z M 18.765625 -3.796875 "/></g></g><g style="fill:#ff914d;fill-opacity:1;"><g transform="translate(144.678856, 270.306618)"><path style="stroke:none" d=""/></g></g><g style="fill:#ff914d;fill-opacity:1;"><g transform="translate(156.037723, 270.306618)"><path style="stroke:none" d="M 17.359375 0.40625 C 14.316406 0.40625 11.601562 -0.191406 9.21875 -1.390625 C 6.832031 -2.597656 4.960938 -4.234375 3.609375 -6.296875 C 2.265625 -8.367188 1.59375 -10.65625 1.59375 -13.15625 C 1.59375 -15.820312 2.265625 -18.234375 3.609375 -20.390625 C 4.960938 -22.554688 6.832031 -24.25 9.21875 -25.46875 C 11.601562 -26.695312 14.265625 -27.3125 17.203125 -27.3125 C 18.535156 -27.3125 19.632812 -27.210938 20.5 -27.015625 C 21.363281 -26.816406 22.179688 -26.554688 22.953125 -26.234375 C 23.617188 -25.921875 24.140625 -25.703125 24.515625 -25.578125 C 24.890625 -25.460938 25.34375 -25.40625 25.875 -25.40625 C 26.300781 -25.40625 26.8125 -25.46875 27.40625 -25.59375 L 27.5625 -25.484375 C 27.375 -24.816406 27.28125 -24.082031 27.28125 -23.28125 C 27.28125 -22.101562 27.535156 -20.367188 28.046875 -18.078125 L 26.953125 -18.078125 C 24.742188 -23.304688 21.441406 -25.921875 17.046875 -25.921875 C 15.304688 -25.921875 13.722656 -25.394531 12.296875 -24.34375 C 10.867188 -23.289062 9.734375 -21.796875 8.890625 -19.859375 C 8.054688 -17.921875 7.640625 -15.6875 7.640625 -13.15625 C 7.640625 -10.757812 8.03125 -8.640625 8.8125 -6.796875 C 9.601562 -4.960938 10.71875 -3.53125 12.15625 -2.5 C 13.59375 -1.46875 15.273438 -0.953125 17.203125 -0.953125 C 19.523438 -0.953125 21.546875 -1.675781 23.265625 -3.125 C 24.984375 -4.582031 26.320312 -6.515625 27.28125 -8.921875 L 28.515625 -8.921875 C 27.742188 -6.273438 27.332031 -3.6875 27.28125 -1.15625 L 27 -1.15625 C 26.363281 -1.15625 25.753906 -1.101562 25.171875 -1 C 24.597656 -0.894531 23.875 -0.722656 23 -0.484375 C 22.039062 -0.191406 21.144531 0.0234375 20.3125 0.171875 C 19.488281 0.328125 18.503906 0.40625 17.359375 0.40625 Z M 17.359375 0.40625 "/></g></g><g style="fill:#ff914d;fill-opacity:1;"><g transform="translate(185.594789, 270.306618)"><path style="stroke:none" d="M 10 0.3125 C 8.238281 0.3125 6.675781 -0.078125 5.3125 -0.859375 C 3.957031 -1.648438 2.90625 -2.726562 2.15625 -4.09375 C 1.414062 -5.46875 1.046875 -7.007812 1.046875 -8.71875 C 1.046875 -10.507812 1.414062 -12.109375 2.15625 -13.515625 C 2.90625 -14.929688 3.957031 -16.03125 5.3125 -16.8125 C 6.675781 -17.601562 8.238281 -18 10 -18 C 11.789062 -18 13.363281 -17.601562 14.71875 -16.8125 C 16.082031 -16.03125 17.132812 -14.957031 17.875 -13.59375 C 18.625 -12.238281 19 -10.722656 19 -9.046875 C 19 -7.222656 18.625 -5.601562 17.875 -4.1875 C 17.132812 -2.78125 16.082031 -1.675781 14.71875 -0.875 C 13.363281 -0.0820312 11.789062 0.3125 10 0.3125 Z M 10.046875 -0.953125 C 12.679688 -0.953125 14 -3.5 14 -8.59375 C 14 -11.289062 13.65625 -13.328125 12.96875 -14.703125 C 12.289062 -16.078125 11.285156 -16.765625 9.953125 -16.765625 C 7.367188 -16.765625 6.078125 -14.226562 6.078125 -9.15625 C 6.078125 -3.6875 7.398438 -0.953125 10.046875 -0.953125 Z M 10.046875 -0.953125 "/></g></g><g style="fill:#ff914d;fill-opacity:1;"><g transform="translate(205.632797, 270.306618)"><path style="stroke:none" d="M 22.3125 -0.6875 L 22.3125 0 L 13 0 L 13 -0.6875 L 14.28125 -1.15625 C 15 -1.445312 15.359375 -1.984375 15.359375 -2.765625 L 15.359375 -11.125 C 15.359375 -12.289062 15.050781 -13.1875 14.4375 -13.8125 C 13.820312 -14.445312 12.941406 -14.765625 11.796875 -14.765625 C 10.679688 -14.765625 9.800781 -14.414062 9.15625 -13.71875 C 8.519531 -13.03125 8.203125 -12.125 8.203125 -11 L 8.203125 -2.484375 C 8.203125 -2.128906 8.304688 -1.84375 8.515625 -1.625 C 8.734375 -1.414062 8.988281 -1.257812 9.28125 -1.15625 L 10.5625 -0.6875 L 10.5625 0 L 1.203125 0 L 1.203125 -0.6875 L 2.515625 -1.15625 C 3.234375 -1.445312 3.59375 -1.984375 3.59375 -2.765625 L 3.59375 -14.15625 C 3.59375 -14.6875 3.503906 -15.050781 3.328125 -15.25 C 3.160156 -15.457031 2.890625 -15.601562 2.515625 -15.6875 L 1.203125 -16 L 1.203125 -16.71875 C 3.117188 -17.007812 4.484375 -17.242188 5.296875 -17.421875 C 6.109375 -17.597656 7.035156 -17.867188 8.078125 -18.234375 L 8.484375 -17.921875 C 8.160156 -17.390625 7.972656 -16.484375 7.921875 -15.203125 L 8.15625 -15.203125 C 9.46875 -15.816406 11.082031 -16.671875 13 -17.765625 C 13.289062 -17.953125 13.625 -18.046875 14 -18.046875 C 15.894531 -18.046875 17.359375 -17.554688 18.390625 -16.578125 C 19.429688 -15.609375 19.953125 -14.226562 19.953125 -12.4375 L 19.953125 -2.484375 C 19.953125 -2.128906 20.054688 -1.84375 20.265625 -1.625 C 20.484375 -1.414062 20.742188 -1.257812 21.046875 -1.15625 Z M 22.3125 -0.6875 "/></g></g><g style="fill:#ff914d;fill-opacity:1;"><g transform="translate(228.390539, 270.306618)"><path style="stroke:none" d="M 22.3125 -0.6875 L 22.3125 0 L 13 0 L 13 -0.6875 L 14.28125 -1.15625 C 15 -1.445312 15.359375 -1.984375 15.359375 -2.765625 L 15.359375 -11.125 C 15.359375 -12.289062 15.050781 -13.1875 14.4375 -13.8125 C 13.820312 -14.445312 12.941406 -14.765625 11.796875 -14.765625 C 10.679688 -14.765625 9.800781 -14.414062 9.15625 -13.71875 C 8.519531 -13.03125 8.203125 -12.125 8.203125 -11 L 8.203125 -2.484375 C 8.203125 -2.128906 8.304688 -1.84375 8.515625 -1.625 C 8.734375 -1.414062 8.988281 -1.257812 9.28125 -1.15625 L 10.5625 -0.6875 L 10.5625 0 L 1.203125 0 L 1.203125 -0.6875 L 2.515625 -1.15625 C 3.234375 -1.445312 3.59375 -1.984375 3.59375 -2.765625 L 3.59375 -14.15625 C 3.59375 -14.6875 3.503906 -15.050781 3.328125 -15.25 C 3.160156 -15.457031 2.890625 -15.601562 2.515625 -15.6875 L 1.203125 -16 L 1.203125 -16.71875 C 3.117188 -17.007812 4.484375 -17.242188 5.296875 -17.421875 C 6.109375 -17.597656 7.035156 -17.867188 8.078125 -18.234375 L 8.484375 -17.921875 C 8.160156 -17.390625 7.972656 -16.484375 7.921875 -15.203125 L 8.15625 -15.203125 C 9.46875 -15.816406 11.082031 -16.671875 13 -17.765625 C 13.289062 -17.953125 13.625 -18.046875 14 -18.046875 C 15.894531 -18.046875 17.359375 -17.554688 18.390625 -16.578125 C 19.429688 -15.609375 19.953125 -14.226562 19.953125 -12.4375 L 19.953125 -2.484375 C 19.953125 -2.128906 20.054688 -1.84375 20.265625 -1.625 C 20.484375 -1.414062 20.742188 -1.257812 21.046875 -1.15625 Z M 22.3125 -0.6875 "/></g></g><g style="fill:#ff914d;fill-opacity:1;"><g transform="translate(251.148281, 270.306618)"><path style="stroke:none" d="M 11.875 -2.5625 C 13.476562 -2.5625 15.050781 -3.238281 16.59375 -4.59375 L 17.28125 -3.953125 C 15.195312 -1.109375 12.703125 0.3125 9.796875 0.3125 C 8.117188 0.3125 6.613281 -0.078125 5.28125 -0.859375 C 3.945312 -1.648438 2.90625 -2.726562 2.15625 -4.09375 C 1.414062 -5.46875 1.046875 -6.984375 1.046875 -8.640625 C 1.046875 -10.453125 1.441406 -12.070312 2.234375 -13.5 C 3.035156 -14.925781 4.132812 -16.039062 5.53125 -16.84375 C 6.9375 -17.644531 8.519531 -18.046875 10.28125 -18.046875 C 11.632812 -18.046875 12.84375 -17.722656 13.90625 -17.078125 C 14.976562 -16.441406 15.804688 -15.554688 16.390625 -14.421875 C 16.984375 -13.285156 17.28125 -12.007812 17.28125 -10.59375 C 17.28125 -10.300781 17.195312 -10.0625 17.03125 -9.875 C 16.875 -9.6875 16.648438 -9.59375 16.359375 -9.59375 L 6.078125 -9.59375 L 6.078125 -9.5625 C 6.078125 -7.375 6.628906 -5.660156 7.734375 -4.421875 C 8.847656 -3.179688 10.226562 -2.5625 11.875 -2.5625 Z M 10.046875 -16.796875 C 8.972656 -16.796875 8.097656 -16.289062 7.421875 -15.28125 C 6.742188 -14.269531 6.320312 -12.894531 6.15625 -11.15625 L 12.125 -11.40625 C 12.5 -11.40625 12.6875 -11.679688 12.6875 -12.234375 C 12.6875 -13.617188 12.441406 -14.722656 11.953125 -15.546875 C 11.472656 -16.378906 10.835938 -16.796875 10.046875 -16.796875 Z M 10.046875 -16.796875 "/></g></g><g style="fill:#ff914d;fill-opacity:1;"><g transform="translate(269.86642, 270.306618)"><path style="stroke:none" d="M 9.796875 0.3125 C 8.117188 0.3125 6.613281 -0.078125 5.28125 -0.859375 C 3.945312 -1.648438 2.90625 -2.722656 2.15625 -4.078125 C 1.414062 -5.441406 1.046875 -6.945312 1.046875 -8.59375 C 1.046875 -10.40625 1.441406 -12.03125 2.234375 -13.46875 C 3.035156 -14.914062 4.144531 -16.039062 5.5625 -16.84375 C 6.976562 -17.644531 8.550781 -18.046875 10.28125 -18.046875 C 12.332031 -18.046875 13.957031 -17.597656 15.15625 -16.703125 C 16.351562 -15.804688 16.953125 -14.640625 16.953125 -13.203125 C 16.953125 -12.367188 16.742188 -11.742188 16.328125 -11.328125 C 15.921875 -10.921875 15.398438 -10.71875 14.765625 -10.71875 C 14.046875 -10.71875 13.472656 -10.910156 13.046875 -11.296875 C 12.617188 -11.679688 12.40625 -12.207031 12.40625 -12.875 C 12.40625 -13.300781 12.507812 -13.71875 12.71875 -14.125 C 12.75 -14.175781 12.800781 -14.285156 12.875 -14.453125 C 12.957031 -14.628906 13 -14.828125 13 -15.046875 C 13 -15.578125 12.742188 -16 12.234375 -16.3125 C 11.734375 -16.632812 11.09375 -16.796875 10.3125 -16.796875 C 9.0625 -16.796875 8.039062 -16.128906 7.25 -14.796875 C 6.46875 -13.460938 6.078125 -11.71875 6.078125 -9.5625 C 6.078125 -7.375 6.628906 -5.660156 7.734375 -4.421875 C 8.847656 -3.179688 10.226562 -2.5625 11.875 -2.5625 C 13.476562 -2.5625 15.050781 -3.238281 16.59375 -4.59375 L 17.28125 -3.953125 C 15.195312 -1.109375 12.703125 0.3125 9.796875 0.3125 Z M 9.796875 0.3125 "/></g></g><g style="fill:#ff914d;fill-opacity:1;"><g transform="translate(287.984636, 270.306618)"><path style="stroke:none" d="M 7.359375 0.3125 C 6.023438 0.3125 5.023438 -0.0820312 4.359375 -0.875 C 3.691406 -1.675781 3.359375 -2.890625 3.359375 -4.515625 L 3.359375 -16.359375 L 0.796875 -16.359375 L 0.796875 -17.40625 C 2.609375 -17.664062 4 -18.28125 4.96875 -19.25 C 5.945312 -20.226562 6.609375 -21.640625 6.953125 -23.484375 L 7.953125 -23.484375 L 7.953125 -17.640625 L 12.59375 -17.640625 L 12.203125 -16.359375 L 7.953125 -16.359375 L 7.953125 -4.84375 C 7.953125 -3.882812 8.097656 -3.21875 8.390625 -2.84375 C 8.691406 -2.46875 9.132812 -2.28125 9.71875 -2.28125 C 10.46875 -2.28125 11.398438 -2.613281 12.515625 -3.28125 L 13.078125 -2.28125 C 12.035156 -1.457031 11.007812 -0.816406 10 -0.359375 C 8.988281 0.0859375 8.109375 0.3125 7.359375 0.3125 Z M 7.359375 0.3125 "/></g></g><g style="fill:#020000;fill-opacity:1;"><g transform="translate(132.945121, 285.05664)"><path style="stroke:none" d="M 1 0 L 1 -9.109375 L 2.015625 -9.109375 L 2.015625 -5.203125 L 6.984375 -5.203125 L 6.984375 -9.109375 L 8 -9.109375 L 8 0 L 6.984375 0 L 6.984375 -4.296875 L 2.015625 -4.296875 L 2.015625 0 Z M 1 0 "/></g></g><g style="fill:#020000;fill-opacity:1;"><g transform="translate(144.350989, 285.05664)"><path style="stroke:none" d="M 1 -9.109375 L 2.015625 -9.109375 L 2.015625 0 L 1 0 Z M 1 -9.109375 "/></g></g><g style="fill:#020000;fill-opacity:1;"><g transform="translate(149.756857, 285.05664)"><path style="stroke:none" d="M 5.0625 -9.1875 L 5.296875 -9.1875 C 6.234375 -9.15625 7.097656 -8.960938 7.890625 -8.609375 L 7.546875 -7.734375 C 6.804688 -8.066406 6.09375 -8.242188 5.40625 -8.265625 C 4.726562 -8.285156 4.175781 -8.203125 3.75 -8.015625 C 3.332031 -7.828125 2.992188 -7.5625 2.734375 -7.21875 C 2.210938 -6.550781 1.953125 -5.59375 1.953125 -4.34375 C 1.992188 -3.175781 2.273438 -2.304688 2.796875 -1.734375 C 3.410156 -1.046875 4.363281 -0.726562 5.65625 -0.78125 C 6.21875 -0.8125 6.695312 -0.929688 7.09375 -1.140625 L 7.09375 -4.03125 L 5.5 -4.03125 L 5.5 -4.96875 L 8.09375 -4.96875 L 8.09375 -0.46875 C 7.40625 -0.175781 6.671875 0.0078125 5.890625 0.09375 C 5.648438 0.113281 5.425781 0.125 5.21875 0.125 C 3.03125 0.0390625 1.679688 -0.84375 1.171875 -2.53125 C 1.003906 -3.070312 0.914062 -3.613281 0.90625 -4.15625 C 0.90625 -4.707031 0.9375 -5.1875 1 -5.59375 C 1.0625 -6 1.160156 -6.378906 1.296875 -6.734375 C 1.429688 -7.097656 1.601562 -7.429688 1.8125 -7.734375 C 2.03125 -8.035156 2.296875 -8.296875 2.609375 -8.515625 C 3.242188 -8.960938 4.0625 -9.1875 5.0625 -9.1875 Z M 5.0625 -9.1875 "/></g></g><g style="fill:#020000;fill-opacity:1;"><g transform="translate(161.162725, 285.05664)"><path style="stroke:none" d="M 1 0 L 1 -9.109375 L 2.015625 -9.109375 L 2.015625 -5.203125 L 6.984375 -5.203125 L 6.984375 -9.109375 L 8 -9.109375 L 8 0 L 6.984375 0 L 6.984375 -4.296875 L 2.015625 -4.296875 L 2.015625 0 Z M 1 0 "/></g></g><g style="fill:#020000;fill-opacity:1;"><g transform="translate(172.568593, 285.05664)"><path style="stroke:none" d=""/></g></g><g style="fill:#020000;fill-opacity:1;"><g transform="translate(178.988133, 285.05664)"><path style="stroke:none" d="M 3.734375 -9.1875 L 3.921875 -9.1875 C 4.503906 -9.1875 5.171875 -9.070312 5.921875 -8.84375 L 5.734375 -7.96875 C 4.003906 -8.519531 2.84375 -8.378906 2.25 -7.546875 C 2.070312 -7.296875 1.984375 -7.023438 1.984375 -6.734375 C 1.984375 -6.453125 2.03125 -6.226562 2.125 -6.0625 C 2.21875 -5.894531 2.347656 -5.75 2.515625 -5.625 C 2.773438 -5.425781 3.128906 -5.238281 3.578125 -5.0625 C 4.035156 -4.894531 4.414062 -4.734375 4.71875 -4.578125 C 5.03125 -4.421875 5.304688 -4.238281 5.546875 -4.03125 C 6.085938 -3.550781 6.359375 -3.003906 6.359375 -2.390625 C 6.359375 -1.878906 6.25 -1.453125 6.03125 -1.109375 C 5.8125 -0.773438 5.5625 -0.523438 5.28125 -0.359375 C 4.769531 -0.0351562 4.109375 0.125 3.296875 0.125 C 2.472656 0.125 1.597656 -0.0351562 0.671875 -0.359375 L 0.859375 -1.265625 C 1.609375 -0.984375 2.429688 -0.820312 3.328125 -0.78125 C 4.078125 -0.757812 4.640625 -0.984375 5.015625 -1.453125 C 5.203125 -1.703125 5.296875 -1.957031 5.296875 -2.21875 C 5.296875 -2.488281 5.242188 -2.707031 5.140625 -2.875 C 5.046875 -3.050781 4.910156 -3.210938 4.734375 -3.359375 C 4.410156 -3.628906 4.023438 -3.84375 3.578125 -4 C 3.128906 -4.15625 2.757812 -4.304688 2.46875 -4.453125 C 2.1875 -4.597656 1.929688 -4.769531 1.703125 -4.96875 C 1.191406 -5.414062 0.9375 -5.988281 0.9375 -6.6875 C 0.9375 -7.820312 1.484375 -8.585938 2.578125 -8.984375 C 2.941406 -9.117188 3.328125 -9.1875 3.734375 -9.1875 Z M 3.734375 -9.1875 "/></g></g><g style="fill:#020000;fill-opacity:1;"><g transform="translate(188.390094, 285.05664)"><path style="stroke:none" d="M 5 0.125 C 2.113281 0.125 0.671875 -1.425781 0.671875 -4.53125 C 0.671875 -7.050781 1.640625 -8.550781 3.578125 -9.03125 C 3.992188 -9.132812 4.4375 -9.1875 4.90625 -9.1875 C 5.8125 -9.1875 6.703125 -9.007812 7.578125 -8.65625 L 7.265625 -7.78125 C 6.453125 -8.101562 5.738281 -8.265625 5.125 -8.265625 C 4.507812 -8.265625 4 -8.203125 3.59375 -8.078125 C 3.195312 -7.960938 2.859375 -7.75 2.578125 -7.4375 C 2.035156 -6.851562 1.75 -5.882812 1.71875 -4.53125 C 1.75 -3.289062 2.015625 -2.367188 2.515625 -1.765625 C 3.046875 -1.128906 3.878906 -0.8125 5.015625 -0.8125 C 5.796875 -0.8125 6.625 -0.992188 7.5 -1.359375 L 7.8125 -0.46875 C 6.882812 -0.0703125 5.945312 0.125 5 0.125 Z M 5 0.125 "/></g></g><g style="fill:#020000;fill-opacity:1;"><g transform="translate(198.794009, 285.05664)"><path style="stroke:none" d="M 1 0 L 1 -9.109375 L 2.015625 -9.109375 L 2.015625 -5.203125 L 6.984375 -5.203125 L 6.984375 -9.109375 L 8 -9.109375 L 8 0 L 6.984375 0 L 6.984375 -4.296875 L 2.015625 -4.296875 L 2.015625 0 Z M 1 0 "/></g></g><g style="fill:#020000;fill-opacity:1;"><g transform="translate(210.199877, 285.05664)"><path style="stroke:none" d="M 0.78125 -4.515625 C 0.78125 -5.253906 0.882812 -5.910156 1.09375 -6.484375 C 1.300781 -7.066406 1.597656 -7.554688 1.984375 -7.953125 C 2.753906 -8.773438 3.78125 -9.1875 5.0625 -9.1875 C 6.40625 -9.1875 7.4375 -8.773438 8.15625 -7.953125 C 8.863281 -7.148438 9.21875 -6.003906 9.21875 -4.515625 C 9.21875 -3.066406 8.816406 -1.925781 8.015625 -1.09375 C 7.242188 -0.28125 6.21875 0.125 4.9375 0.125 C 3.644531 0.125 2.632812 -0.28125 1.90625 -1.09375 C 1.15625 -1.914062 0.78125 -3.054688 0.78125 -4.515625 Z M 1.828125 -4.5 C 1.828125 -3.894531 1.894531 -3.359375 2.03125 -2.890625 C 2.175781 -2.421875 2.390625 -2.03125 2.671875 -1.71875 C 3.234375 -1.09375 4.015625 -0.785156 5.015625 -0.796875 C 6.003906 -0.804688 6.78125 -1.128906 7.34375 -1.765625 C 7.914062 -2.429688 8.195312 -3.367188 8.1875 -4.578125 C 8.15625 -7.035156 7.070312 -8.265625 4.9375 -8.265625 C 3.957031 -8.265625 3.195312 -7.9375 2.65625 -7.28125 C 2.113281 -6.625 1.835938 -5.695312 1.828125 -4.5 Z M 1.828125 -4.5 "/></g></g><g style="fill:#020000;fill-opacity:1;"><g transform="translate(222.607698, 285.05664)"><path style="stroke:none" d="M 0.78125 -4.515625 C 0.78125 -5.253906 0.882812 -5.910156 1.09375 -6.484375 C 1.300781 -7.066406 1.597656 -7.554688 1.984375 -7.953125 C 2.753906 -8.773438 3.78125 -9.1875 5.0625 -9.1875 C 6.40625 -9.1875 7.4375 -8.773438 8.15625 -7.953125 C 8.863281 -7.148438 9.21875 -6.003906 9.21875 -4.515625 C 9.21875 -3.066406 8.816406 -1.925781 8.015625 -1.09375 C 7.242188 -0.28125 6.21875 0.125 4.9375 0.125 C 3.644531 0.125 2.632812 -0.28125 1.90625 -1.09375 C 1.15625 -1.914062 0.78125 -3.054688 0.78125 -4.515625 Z M 1.828125 -4.5 C 1.828125 -3.894531 1.894531 -3.359375 2.03125 -2.890625 C 2.175781 -2.421875 2.390625 -2.03125 2.671875 -1.71875 C 3.234375 -1.09375 4.015625 -0.785156 5.015625 -0.796875 C 6.003906 -0.804688 6.78125 -1.128906 7.34375 -1.765625 C 7.914062 -2.429688 8.195312 -3.367188 8.1875 -4.578125 C 8.15625 -7.035156 7.070312 -8.265625 4.9375 -8.265625 C 3.957031 -8.265625 3.195312 -7.9375 2.65625 -7.28125 C 2.113281 -6.625 1.835938 -5.695312 1.828125 -4.5 Z M 1.828125 -4.5 "/></g></g><g style="fill:#020000;fill-opacity:1;"><g transform="translate(235.015518, 285.05664)"><path style="stroke:none" d="M 0.984375 0 L 0.984375 -9.109375 L 2 -9.109375 L 2 -0.953125 L 6.171875 -0.953125 L 6.140625 0 Z M 0.984375 0 "/></g></g></g></svg>