<svg xmlns="http://www.w3.org/2000/svg" xmlns:xlink="http://www.w3.org/1999/xlink" width="500" zoomAndPan="magnify" viewBox="0 0 375 374.999991" height="500" preserveAspectRatio="xMidYMid meet" version="1.2"><defs><clipPath id="6cf90b1796"><path d="M 0.351562 160 L 308.761719 160 L 308.761719 374.605469 L 0.351562 374.605469 Z M 0.351562 160 "/></clipPath><clipPath id="868646888b"><path d="M 44 66 L 265 66 L 265 292.125 L 44 292.125 Z M 44 66 "/></clipPath><clipPath id="e32d11ce02"><path d="M 39.222656 0 L 269.15625 0 L 269.15625 82 L 39.222656 82 Z M 39.222656 0 "/></clipPath><clipPath id="c389996f5e"><rect x="0" width="309" y="0" height="375"/></clipPath></defs><g id="79860f970f"><g transform="matrix(1,0,0,1,33,0)"><g clip-path="url(#c389996f5e)"><g clip-rule="nonzero" clip-path="url(#6cf90b1796)"><path style=" stroke:none;fill-rule:evenodd;fill:#ffbd59;fill-opacity:1;" d="M 92.910156 160.132812 C 92.636719 160.164062 91.765625 160.261719 90.980469 160.34375 C 85.804688 160.902344 82.367188 161.855469 75.316406 164.699219 C 54.78125 172.976562 35.511719 177.625 20.058594 178.03125 L 16.804688 178.117188 L 16.804688 350.316406 L 17.125 350.316406 C 17.691406 350.316406 22.5 349.746094 25.671875 349.300781 C 42.886719 346.898438 61.128906 342.355469 75.316406 336.9375 C 81.6875 334.5 85.226562 333.609375 90.335938 333.152344 C 106.1875 331.738281 128.886719 337.832031 149.722656 349.105469 C 150.953125 349.769531 152 350.316406 152.046875 350.316406 C 152.097656 350.316406 152.136719 311.566406 152.136719 264.203125 L 152.136719 178.09375 L 150.171875 176.890625 C 135.621094 168.011719 119.710938 162.195312 105.070312 160.394531 C 103.246094 160.167969 94.28125 159.976562 92.910156 160.132812 M 208.644531 160.132812 C 208.371094 160.164062 207.4375 160.257812 206.570312 160.339844 C 192.46875 161.675781 174.703125 168.191406 159.546875 177.582031 L 158.871094 178 L 158.867188 264.171875 C 158.863281 311.5625 158.910156 350.316406 158.96875 350.292969 C 159.03125 350.265625 160.128906 349.671875 161.414062 348.976562 C 180.402344 338.664062 200.863281 332.765625 216.65625 333.050781 C 223.960938 333.179688 227.363281 333.859375 234.898438 336.683594 C 248.808594 341.902344 263.554688 345.792969 279.171875 348.367188 C 284.570312 349.257812 292.53125 350.316406 293.835938 350.316406 L 294.195312 350.316406 L 294.195312 178.117188 L 290.796875 178.027344 C 275.472656 177.625 255.421875 172.789062 235.683594 164.738281 C 228.96875 162 226.054688 161.164062 220.519531 160.390625 C 218.960938 160.175781 210.023438 159.980469 208.644531 160.132812 M 9.363281 188.527344 C 8.773438 188.585938 6.503906 188.679688 4.320312 188.738281 L 0.351562 188.847656 L 0.351562 374.777344 L 0.964844 374.777344 C 1.875 374.777344 8.792969 373.976562 12.796875 373.40625 C 32.203125 370.644531 50.605469 366.210938 67.230469 360.296875 C 75.917969 357.207031 80.15625 356.347656 87.984375 356.09375 C 105.117188 355.539062 128.820312 361.914062 150.863281 373.007812 C 152.800781 373.980469 154.421875 374.777344 154.472656 374.777344 C 154.523438 374.777344 156.578125 373.785156 159.039062 372.570312 C 184.40625 360.054688 209.480469 354.21875 227.671875 356.597656 C 232.421875 357.21875 235.085938 357.917969 241.832031 360.320312 C 258.175781 366.136719 276.710938 370.617188 295.695312 373.332031 C 300.488281 374.015625 307.011719 374.777344 308.089844 374.777344 L 308.644531 374.777344 L 308.644531 188.800781 L 306.03125 188.796875 C 303.671875 188.792969 302.410156 188.734375 298.449219 188.433594 L 297.199219 188.335938 L 297.199219 356.039062 L 296.660156 356.039062 C 294.550781 356.039062 283.113281 354.460938 275.890625 353.171875 C 260.929688 350.507812 248.019531 347.121094 234.683594 342.367188 C 230.507812 340.878906 228.457031 340.289062 225.566406 339.738281 C 208.019531 336.398438 183.105469 341.742188 158.152344 354.199219 L 154.511719 356.019531 L 150.5 354.035156 C 126.667969 342.25 102.992188 336.847656 85.972656 339.3125 C 81.804688 339.914062 79.59375 340.496094 74.457031 342.328125 C 55.753906 349.007812 30.230469 354.6875 13.109375 355.980469 L 11.796875 356.078125 L 11.796875 188.375 L 11.117188 188.394531 C 10.742188 188.410156 9.953125 188.46875 9.363281 188.527344 "/></g><g clip-rule="nonzero" clip-path="url(#868646888b)"><path style=" stroke:none;fill-rule:nonzero;fill:#ff914d;fill-opacity:1;" d="M 253.847656 154.785156 C 253.847656 153.335938 254.03125 151.703125 254.03125 150.25 C 254.03125 127.929688 244.957031 105.609375 228.082031 90.367188 C 208.664062 72.765625 179.996094 66.960938 154.40625 66.960938 C 103.960938 66.960938 54.96875 94.722656 54.96875 150.25 C 54.96875 151.703125 54.96875 153.152344 55.148438 154.785156 C 44.078125 159.324219 41.539062 188.359375 49.703125 221.382812 C 58.050781 255.5 72.75 282.355469 84.726562 279.453125 C 90.535156 278 94.527344 270.015625 96.339844 258.402344 C 112.671875 278.363281 132.996094 292.152344 154.769531 292.152344 C 176.546875 292.152344 196.871094 278.363281 213.203125 258.402344 C 214.472656 266.566406 216.832031 272.917969 220.097656 276.546875 C 221.003906 278 222.273438 278.90625 223.363281 279.269531 C 223.546875 279.269531 223.726562 279.269531 224.089844 279.453125 C 224.269531 279.453125 224.453125 279.632812 224.816406 279.632812 C 236.792969 282.535156 251.492188 255.5 259.835938 221.566406 C 267.640625 188.175781 265.101562 158.960938 253.847656 154.785156 Z M 253.847656 154.785156 "/></g><path style=" stroke:none;fill-rule:nonzero;fill:#ffffff;fill-opacity:1;" d="M 132.453125 216.121094 L 150.597656 205.234375 L 141.523438 214.851562 L 132.453125 224.46875 L 114.304688 205.234375 Z M 132.453125 216.121094 "/><path style=" stroke:none;fill-rule:nonzero;fill:#ffffff;fill-opacity:1;" d="M 93.617188 216.121094 L 111.765625 205.234375 L 93.617188 224.46875 L 84.546875 214.851562 L 75.472656 205.234375 Z M 93.617188 216.121094 "/><path style=" stroke:none;fill-rule:nonzero;fill:#ffffff;fill-opacity:1;" d="M 177.089844 217.027344 L 195.238281 206.140625 L 177.089844 225.375 L 168.019531 215.757812 L 158.945312 206.140625 Z M 177.089844 217.027344 "/><path style=" stroke:none;fill-rule:nonzero;fill:#ffffff;fill-opacity:1;" d="M 215.5625 217.027344 L 233.707031 206.140625 L 224.632812 215.757812 L 215.5625 225.375 L 197.414062 206.140625 Z M 215.5625 217.027344 "/><path style=" stroke:none;fill-rule:nonzero;fill:#ffffff;fill-opacity:1;" d="M 114.304688 242.613281 L 132.453125 231.726562 L 114.304688 250.960938 L 105.230469 241.34375 L 96.160156 231.726562 Z M 114.304688 242.613281 "/><path style=" stroke:none;fill-rule:nonzero;fill:#ffffff;fill-opacity:1;" d="M 154.953125 242.613281 L 173.097656 231.726562 L 164.027344 241.34375 L 154.953125 250.960938 L 136.804688 231.726562 Z M 154.953125 242.613281 "/><path style=" stroke:none;fill-rule:nonzero;fill:#ffffff;fill-opacity:1;" d="M 196.324219 242.613281 L 214.472656 231.726562 L 196.324219 250.960938 L 187.253906 241.34375 L 178.179688 231.726562 Z M 196.324219 242.613281 "/><path style=" stroke:none;fill-rule:nonzero;fill:#ffffff;fill-opacity:1;" d="M 136.804688 266.386719 L 154.953125 255.5 L 136.804688 274.734375 L 127.734375 265.117188 L 118.660156 255.5 Z M 136.804688 266.386719 "/><path style=" stroke:none;fill-rule:nonzero;fill:#ffffff;fill-opacity:1;" d="M 175.820312 266.386719 L 193.96875 255.5 L 175.820312 274.734375 L 166.746094 265.117188 L 157.675781 255.5 Z M 175.820312 266.386719 "/><path style=" stroke:none;fill-rule:nonzero;fill:#ffffff;fill-opacity:1;" d="M 169.105469 173.296875 L 154.589844 170.03125 L 140.074219 173.296875 L 140.796875 173.839844 L 140.074219 173.839844 L 147.332031 183.640625 L 154.589844 193.4375 L 161.847656 183.640625 L 169.105469 173.839844 L 168.378906 173.839844 Z M 169.105469 173.296875 "/><path style=" stroke:none;fill-rule:nonzero;fill:#ffffff;fill-opacity:1;" d="M 150.777344 140.453125 C 150.777344 141.6875 150.71875 142.921875 150.597656 144.152344 C 150.476562 145.382812 150.292969 146.601562 150.054688 147.816406 C 149.8125 149.027344 149.511719 150.226562 149.152344 151.40625 C 148.792969 152.589844 148.378906 153.753906 147.90625 154.894531 C 147.433594 156.039062 146.90625 157.152344 146.320312 158.242188 C 145.738281 159.335938 145.105469 160.394531 144.417969 161.421875 C 143.730469 162.449219 142.996094 163.441406 142.210938 164.394531 C 141.425781 165.351562 140.597656 166.265625 139.722656 167.140625 C 138.851562 168.015625 137.933594 168.84375 136.980469 169.628906 C 136.023438 170.414062 135.03125 171.148438 134.003906 171.835938 C 132.976562 172.519531 131.917969 173.15625 130.828125 173.738281 C 129.738281 174.320312 128.621094 174.847656 127.480469 175.324219 C 126.335938 175.796875 125.175781 176.210938 123.992188 176.570312 C 122.808594 176.929688 121.609375 177.230469 120.398438 177.46875 C 119.1875 177.710938 117.964844 177.894531 116.734375 178.015625 C 115.503906 178.136719 114.269531 178.195312 113.035156 178.195312 C 111.796875 178.195312 110.566406 178.136719 109.335938 178.015625 C 108.105469 177.894531 106.882812 177.710938 105.671875 177.46875 C 104.457031 177.230469 103.261719 176.929688 102.078125 176.570312 C 100.894531 176.210938 99.734375 175.796875 98.589844 175.324219 C 97.449219 174.847656 96.332031 174.320312 95.242188 173.738281 C 94.152344 173.15625 93.09375 172.519531 92.066406 171.835938 C 91.039062 171.148438 90.046875 170.414062 89.089844 169.628906 C 88.132812 168.84375 87.21875 168.015625 86.34375 167.140625 C 85.472656 166.265625 84.640625 165.351562 83.859375 164.394531 C 83.074219 163.441406 82.339844 162.449219 81.652344 161.421875 C 80.964844 160.394531 80.332031 159.335938 79.746094 158.242188 C 79.164062 157.152344 78.636719 156.039062 78.164062 154.894531 C 77.691406 153.753906 77.273438 152.589844 76.914062 151.40625 C 76.558594 150.226562 76.257812 149.027344 76.015625 147.816406 C 75.773438 146.601562 75.59375 145.382812 75.472656 144.152344 C 75.351562 142.921875 75.289062 141.6875 75.289062 140.453125 C 75.289062 139.214844 75.351562 137.980469 75.472656 136.753906 C 75.59375 135.523438 75.773438 134.300781 76.015625 133.089844 C 76.257812 131.875 76.558594 130.679688 76.914062 129.496094 C 77.273438 128.3125 77.691406 127.148438 78.164062 126.007812 C 78.636719 124.867188 79.164062 123.75 79.746094 122.660156 C 80.332031 121.570312 80.964844 120.511719 81.652344 119.480469 C 82.339844 118.453125 83.074219 117.460938 83.859375 116.507812 C 84.640625 115.550781 85.472656 114.636719 86.34375 113.761719 C 87.21875 112.886719 88.132812 112.058594 89.089844 111.273438 C 90.046875 110.492188 91.039062 109.753906 92.066406 109.070312 C 93.09375 108.382812 94.152344 107.746094 95.242188 107.164062 C 96.332031 106.582031 97.449219 106.054688 98.589844 105.582031 C 99.734375 105.109375 100.894531 104.691406 102.078125 104.332031 C 103.261719 103.972656 104.457031 103.675781 105.671875 103.433594 C 106.882812 103.191406 108.105469 103.011719 109.335938 102.890625 C 110.566406 102.769531 111.796875 102.707031 113.035156 102.707031 C 114.269531 102.707031 115.503906 102.769531 116.734375 102.890625 C 117.964844 103.011719 119.1875 103.191406 120.398438 103.433594 C 121.609375 103.675781 122.808594 103.972656 123.992188 104.332031 C 125.175781 104.691406 126.335938 105.109375 127.480469 105.582031 C 128.621094 106.054688 129.738281 106.582031 130.828125 107.164062 C 131.917969 107.746094 132.976562 108.382812 134.003906 109.070312 C 135.03125 109.753906 136.023438 110.492188 136.980469 111.273438 C 137.933594 112.058594 138.851562 112.886719 139.722656 113.761719 C 140.597656 114.636719 141.425781 115.550781 142.210938 116.507812 C 142.996094 117.460938 143.730469 118.453125 144.417969 119.480469 C 145.105469 120.511719 145.738281 121.570312 146.320312 122.660156 C 146.90625 123.75 147.433594 124.867188 147.90625 126.007812 C 148.378906 127.148438 148.792969 128.3125 149.152344 129.496094 C 149.511719 130.679688 149.8125 131.875 150.054688 133.089844 C 150.292969 134.300781 150.476562 135.523438 150.597656 136.753906 C 150.71875 137.980469 150.777344 139.214844 150.777344 140.453125 Z M 150.777344 140.453125 "/><path style=" stroke:none;fill-rule:nonzero;fill:#020000;fill-opacity:1;" d="M 132.269531 140.453125 C 132.269531 141.082031 132.238281 141.710938 132.175781 142.335938 C 132.117188 142.964844 132.023438 143.585938 131.898438 144.203125 C 131.777344 144.820312 131.625 145.433594 131.441406 146.035156 C 131.257812 146.636719 131.046875 147.230469 130.804688 147.8125 C 130.566406 148.394531 130.296875 148.964844 130 149.519531 C 129.703125 150.074219 129.378906 150.613281 129.027344 151.136719 C 128.679688 151.660156 128.304688 152.167969 127.902344 152.652344 C 127.503906 153.140625 127.082031 153.605469 126.636719 154.054688 C 126.191406 154.5 125.722656 154.921875 125.238281 155.320312 C 124.75 155.71875 124.246094 156.09375 123.722656 156.445312 C 123.199219 156.792969 122.65625 157.117188 122.101562 157.414062 C 121.546875 157.710938 120.976562 157.980469 120.394531 158.222656 C 119.8125 158.464844 119.222656 158.675781 118.617188 158.859375 C 118.015625 159.042969 117.40625 159.195312 116.789062 159.316406 C 116.167969 159.441406 115.546875 159.53125 114.921875 159.59375 C 114.292969 159.65625 113.664062 159.6875 113.035156 159.6875 C 112.40625 159.6875 111.777344 159.65625 111.148438 159.59375 C 110.523438 159.53125 109.898438 159.441406 109.28125 159.316406 C 108.664062 159.195312 108.054688 159.042969 107.453125 158.859375 C 106.847656 158.675781 106.257812 158.464844 105.675781 158.222656 C 105.09375 157.980469 104.523438 157.710938 103.96875 157.414062 C 103.410156 157.117188 102.871094 156.792969 102.347656 156.445312 C 101.824219 156.09375 101.320312 155.71875 100.832031 155.320312 C 100.34375 154.921875 99.878906 154.5 99.433594 154.054688 C 98.988281 153.605469 98.566406 153.140625 98.164062 152.652344 C 97.765625 152.167969 97.390625 151.660156 97.042969 151.136719 C 96.691406 150.613281 96.367188 150.074219 96.070312 149.519531 C 95.773438 148.964844 95.503906 148.394531 95.265625 147.8125 C 95.023438 147.230469 94.8125 146.636719 94.628906 146.035156 C 94.445312 145.433594 94.292969 144.820312 94.167969 144.203125 C 94.046875 143.585938 93.953125 142.964844 93.890625 142.335938 C 93.832031 141.710938 93.800781 141.082031 93.800781 140.453125 C 93.800781 139.820312 93.832031 139.191406 93.890625 138.566406 C 93.953125 137.9375 94.046875 137.316406 94.167969 136.699219 C 94.292969 136.082031 94.445312 135.472656 94.628906 134.867188 C 94.8125 134.265625 95.023438 133.671875 95.265625 133.089844 C 95.503906 132.507812 95.773438 131.941406 96.070312 131.382812 C 96.367188 130.828125 96.691406 130.289062 97.042969 129.765625 C 97.390625 129.242188 97.765625 128.734375 98.164062 128.25 C 98.566406 127.761719 98.988281 127.296875 99.433594 126.851562 C 99.878906 126.40625 100.34375 125.984375 100.832031 125.582031 C 101.320312 125.183594 101.824219 124.808594 102.347656 124.457031 C 102.871094 124.109375 103.410156 123.785156 103.96875 123.488281 C 104.523438 123.191406 105.09375 122.921875 105.675781 122.679688 C 106.257812 122.441406 106.847656 122.226562 107.453125 122.042969 C 108.054688 121.863281 108.664062 121.710938 109.28125 121.585938 C 109.898438 121.464844 110.523438 121.371094 111.148438 121.308594 C 111.777344 121.246094 112.40625 121.214844 113.035156 121.214844 C 113.664062 121.214844 114.292969 121.246094 114.921875 121.308594 C 115.546875 121.371094 116.167969 121.464844 116.789062 121.585938 C 117.40625 121.710938 118.015625 121.863281 118.617188 122.042969 C 119.222656 122.226562 119.8125 122.441406 120.394531 122.679688 C 120.976562 122.921875 121.546875 123.191406 122.101562 123.488281 C 122.65625 123.785156 123.199219 124.109375 123.722656 124.457031 C 124.246094 124.808594 124.75 125.183594 125.238281 125.582031 C 125.722656 125.980469 126.191406 126.40625 126.636719 126.851562 C 127.082031 127.296875 127.503906 127.761719 127.902344 128.25 C 128.304688 128.734375 128.679688 129.242188 129.027344 129.765625 C 129.378906 130.289062 129.703125 130.828125 130 131.382812 C 130.296875 131.941406 130.566406 132.507812 130.804688 133.089844 C 131.046875 133.671875 131.257812 134.265625 131.441406 134.867188 C 131.625 135.472656 131.777344 136.082031 131.898438 136.699219 C 132.023438 137.316406 132.117188 137.9375 132.175781 138.566406 C 132.238281 139.191406 132.269531 139.820312 132.269531 140.453125 Z M 132.269531 140.453125 "/><path style=" stroke:none;fill-rule:nonzero;fill:#ffffff;fill-opacity:1;" d="M 125.917969 146.984375 C 125.917969 147.566406 125.863281 148.144531 125.746094 148.71875 C 125.632812 149.292969 125.464844 149.847656 125.242188 150.386719 C 125.019531 150.925781 124.746094 151.4375 124.421875 151.925781 C 124.097656 152.410156 123.726562 152.859375 123.3125 153.273438 C 122.902344 153.683594 122.453125 154.054688 121.96875 154.378906 C 121.480469 154.703125 120.96875 154.976562 120.429688 155.199219 C 119.890625 155.421875 119.335938 155.589844 118.761719 155.703125 C 118.1875 155.820312 117.609375 155.875 117.027344 155.875 C 116.441406 155.875 115.863281 155.820312 115.292969 155.703125 C 114.71875 155.589844 114.164062 155.421875 113.625 155.199219 C 113.085938 154.976562 112.574219 154.703125 112.085938 154.378906 C 111.601562 154.054688 111.152344 153.683594 110.738281 153.273438 C 110.328125 152.859375 109.957031 152.410156 109.632812 151.925781 C 109.308594 151.4375 109.035156 150.925781 108.8125 150.386719 C 108.589844 149.847656 108.421875 149.292969 108.304688 148.71875 C 108.191406 148.144531 108.136719 147.566406 108.136719 146.984375 C 108.136719 146.402344 108.191406 145.820312 108.304688 145.25 C 108.421875 144.675781 108.589844 144.121094 108.8125 143.582031 C 109.035156 143.042969 109.308594 142.53125 109.632812 142.042969 C 109.957031 141.558594 110.328125 141.109375 110.738281 140.695312 C 111.152344 140.285156 111.601562 139.914062 112.085938 139.589844 C 112.574219 139.265625 113.085938 138.992188 113.625 138.769531 C 114.164062 138.546875 114.71875 138.378906 115.292969 138.261719 C 115.863281 138.148438 116.441406 138.09375 117.027344 138.09375 C 117.609375 138.09375 118.1875 138.148438 118.761719 138.261719 C 119.335938 138.378906 119.890625 138.546875 120.429688 138.769531 C 120.96875 138.992188 121.480469 139.265625 121.96875 139.589844 C 122.453125 139.914062 122.902344 140.285156 123.3125 140.695312 C 123.726562 141.109375 124.097656 141.558594 124.421875 142.042969 C 124.746094 142.53125 125.019531 143.042969 125.242188 143.582031 C 125.464844 144.121094 125.632812 144.675781 125.746094 145.25 C 125.863281 145.820312 125.917969 146.402344 125.917969 146.984375 Z M 125.917969 146.984375 "/><path style=" stroke:none;fill-rule:nonzero;fill:#ffffff;fill-opacity:1;" d="M 233.886719 140.453125 C 233.886719 141.6875 233.828125 142.921875 233.707031 144.152344 C 233.585938 145.382812 233.40625 146.601562 233.164062 147.816406 C 232.921875 149.027344 232.621094 150.226562 232.261719 151.40625 C 231.90625 152.589844 231.488281 153.753906 231.015625 154.894531 C 230.542969 156.039062 230.015625 157.152344 229.433594 158.242188 C 228.847656 159.335938 228.214844 160.394531 227.527344 161.421875 C 226.839844 162.449219 226.105469 163.441406 225.320312 164.394531 C 224.535156 165.351562 223.707031 166.265625 222.832031 167.140625 C 221.960938 168.015625 221.042969 168.84375 220.089844 169.628906 C 219.132812 170.414062 218.140625 171.148438 217.113281 171.835938 C 216.085938 172.519531 215.027344 173.15625 213.9375 173.738281 C 212.847656 174.320312 211.730469 174.847656 210.589844 175.324219 C 209.445312 175.796875 208.285156 176.210938 207.101562 176.570312 C 205.917969 176.929688 204.71875 177.230469 203.507812 177.46875 C 202.296875 177.710938 201.074219 177.894531 199.84375 178.015625 C 198.613281 178.136719 197.378906 178.195312 196.144531 178.195312 C 194.910156 178.195312 193.675781 178.136719 192.445312 178.015625 C 191.214844 177.894531 189.992188 177.710938 188.78125 177.46875 C 187.570312 177.230469 186.371094 176.929688 185.1875 176.570312 C 184.003906 176.210938 182.84375 175.796875 181.699219 175.324219 C 180.558594 174.847656 179.441406 174.320312 178.351562 173.738281 C 177.261719 173.15625 176.203125 172.519531 175.175781 171.835938 C 174.148438 171.148438 173.15625 170.414062 172.199219 169.628906 C 171.246094 168.84375 170.328125 168.015625 169.457031 167.140625 C 168.582031 166.265625 167.753906 165.351562 166.96875 164.394531 C 166.183594 163.441406 165.449219 162.449219 164.761719 161.421875 C 164.074219 160.394531 163.441406 159.335938 162.855469 158.242188 C 162.273438 157.152344 161.746094 156.039062 161.273438 154.894531 C 160.800781 153.753906 160.382812 152.589844 160.027344 151.40625 C 159.667969 150.226562 159.367188 149.027344 159.125 147.816406 C 158.882812 146.601562 158.703125 145.382812 158.582031 144.152344 C 158.460938 142.921875 158.398438 141.6875 158.398438 140.453125 C 158.398438 139.214844 158.460938 137.980469 158.582031 136.753906 C 158.703125 135.523438 158.882812 134.300781 159.125 133.089844 C 159.367188 131.875 159.667969 130.679688 160.027344 129.496094 C 160.382812 128.3125 160.800781 127.148438 161.273438 126.007812 C 161.746094 124.867188 162.273438 123.75 162.855469 122.660156 C 163.441406 121.570312 164.074219 120.511719 164.761719 119.480469 C 165.449219 118.453125 166.183594 117.460938 166.96875 116.507812 C 167.753906 115.550781 168.582031 114.636719 169.457031 113.761719 C 170.328125 112.886719 171.246094 112.058594 172.199219 111.273438 C 173.15625 110.492188 174.148438 109.753906 175.175781 109.070312 C 176.203125 108.382812 177.261719 107.746094 178.351562 107.164062 C 179.441406 106.582031 180.558594 106.054688 181.699219 105.582031 C 182.84375 105.109375 184.003906 104.691406 185.1875 104.332031 C 186.371094 103.972656 187.570312 103.675781 188.78125 103.433594 C 189.992188 103.191406 191.214844 103.011719 192.445312 102.890625 C 193.675781 102.769531 194.910156 102.707031 196.144531 102.707031 C 197.378906 102.707031 198.613281 102.769531 199.84375 102.890625 C 201.074219 103.011719 202.296875 103.191406 203.507812 103.433594 C 204.71875 103.675781 205.917969 103.972656 207.101562 104.332031 C 208.285156 104.691406 209.445312 105.109375 210.589844 105.582031 C 211.730469 106.054688 212.847656 106.582031 213.9375 107.164062 C 215.027344 107.746094 216.085938 108.382812 217.113281 109.070312 C 218.140625 109.753906 219.132812 110.492188 220.089844 111.273438 C 221.042969 112.058594 221.960938 112.886719 222.832031 113.761719 C 223.707031 114.636719 224.535156 115.550781 225.320312 116.507812 C 226.105469 117.460938 226.839844 118.453125 227.527344 119.480469 C 228.214844 120.511719 228.847656 121.570312 229.433594 122.660156 C 230.015625 123.75 230.542969 124.867188 231.015625 126.007812 C 231.488281 127.148438 231.90625 128.3125 232.261719 129.496094 C 232.621094 130.679688 232.921875 131.875 233.164062 133.089844 C 233.40625 134.300781 233.585938 135.523438 233.707031 136.753906 C 233.828125 137.980469 233.886719 139.214844 233.886719 140.453125 Z M 233.886719 140.453125 "/><path style=" stroke:none;fill-rule:nonzero;fill:#020000;fill-opacity:1;" d="M 215.378906 140.453125 C 215.378906 141.082031 215.347656 141.710938 215.285156 142.335938 C 215.226562 142.964844 215.132812 143.585938 215.007812 144.203125 C 214.886719 144.820312 214.734375 145.433594 214.550781 146.035156 C 214.367188 146.636719 214.15625 147.230469 213.914062 147.8125 C 213.675781 148.394531 213.40625 148.964844 213.109375 149.519531 C 212.8125 150.074219 212.488281 150.613281 212.136719 151.136719 C 211.789062 151.660156 211.414062 152.167969 211.011719 152.652344 C 210.613281 153.140625 210.191406 153.605469 209.746094 154.054688 C 209.300781 154.5 208.832031 154.921875 208.347656 155.320312 C 207.859375 155.71875 207.355469 156.09375 206.832031 156.445312 C 206.308594 156.792969 205.765625 157.117188 205.210938 157.414062 C 204.65625 157.710938 204.085938 157.980469 203.503906 158.222656 C 202.921875 158.464844 202.332031 158.675781 201.726562 158.859375 C 201.125 159.042969 200.515625 159.195312 199.898438 159.316406 C 199.277344 159.441406 198.65625 159.53125 198.03125 159.59375 C 197.402344 159.65625 196.773438 159.6875 196.144531 159.6875 C 195.515625 159.6875 194.886719 159.65625 194.257812 159.59375 C 193.632812 159.53125 193.007812 159.441406 192.390625 159.316406 C 191.773438 159.195312 191.164062 159.042969 190.5625 158.859375 C 189.957031 158.675781 189.367188 158.464844 188.785156 158.222656 C 188.203125 157.980469 187.632812 157.710938 187.078125 157.414062 C 186.523438 157.117188 185.980469 156.792969 185.457031 156.445312 C 184.933594 156.09375 184.429688 155.71875 183.941406 155.320312 C 183.453125 154.921875 182.988281 154.5 182.542969 154.054688 C 182.097656 153.605469 181.675781 153.140625 181.277344 152.652344 C 180.875 152.167969 180.5 151.660156 180.152344 151.136719 C 179.800781 150.613281 179.476562 150.074219 179.179688 149.519531 C 178.882812 148.964844 178.613281 148.394531 178.375 147.8125 C 178.132812 147.230469 177.921875 146.636719 177.738281 146.035156 C 177.554688 145.433594 177.402344 144.820312 177.277344 144.203125 C 177.15625 143.585938 177.0625 142.964844 177.003906 142.335938 C 176.941406 141.710938 176.910156 141.082031 176.910156 140.453125 C 176.910156 139.820312 176.941406 139.191406 177.003906 138.566406 C 177.0625 137.9375 177.15625 137.316406 177.277344 136.699219 C 177.402344 136.082031 177.554688 135.472656 177.738281 134.867188 C 177.921875 134.265625 178.132812 133.671875 178.375 133.089844 C 178.613281 132.507812 178.882812 131.941406 179.179688 131.382812 C 179.476562 130.828125 179.800781 130.289062 180.152344 129.765625 C 180.5 129.242188 180.875 128.734375 181.277344 128.25 C 181.675781 127.761719 182.097656 127.296875 182.542969 126.851562 C 182.988281 126.40625 183.453125 125.984375 183.941406 125.582031 C 184.429688 125.183594 184.933594 124.808594 185.457031 124.457031 C 185.980469 124.109375 186.523438 123.785156 187.078125 123.488281 C 187.632812 123.191406 188.203125 122.921875 188.785156 122.679688 C 189.367188 122.441406 189.957031 122.226562 190.5625 122.042969 C 191.164062 121.863281 191.773438 121.710938 192.390625 121.585938 C 193.007812 121.464844 193.632812 121.371094 194.257812 121.308594 C 194.886719 121.246094 195.515625 121.214844 196.144531 121.214844 C 196.773438 121.214844 197.402344 121.246094 198.03125 121.308594 C 198.65625 121.371094 199.277344 121.464844 199.898438 121.585938 C 200.515625 121.710938 201.125 121.863281 201.726562 122.042969 C 202.332031 122.226562 202.921875 122.441406 203.503906 122.679688 C 204.085938 122.921875 204.65625 123.191406 205.210938 123.488281 C 205.765625 123.785156 206.308594 124.109375 206.832031 124.457031 C 207.355469 124.808594 207.859375 125.183594 208.347656 125.582031 C 208.832031 125.980469 209.300781 126.40625 209.746094 126.851562 C 210.191406 127.296875 210.613281 127.761719 211.011719 128.25 C 211.414062 128.734375 211.789062 129.242188 212.136719 129.765625 C 212.488281 130.289062 212.8125 130.828125 213.109375 131.382812 C 213.40625 131.941406 213.675781 132.507812 213.914062 133.089844 C 214.15625 133.671875 214.367188 134.265625 214.550781 134.867188 C 214.734375 135.472656 214.886719 136.082031 215.007812 136.699219 C 215.132812 137.316406 215.226562 137.9375 215.285156 138.566406 C 215.347656 139.191406 215.378906 139.820312 215.378906 140.453125 Z M 215.378906 140.453125 "/><path style=" stroke:none;fill-rule:nonzero;fill:#ffffff;fill-opacity:1;" d="M 201.042969 146.984375 C 201.042969 147.566406 200.988281 148.144531 200.871094 148.71875 C 200.757812 149.292969 200.589844 149.847656 200.367188 150.386719 C 200.144531 150.925781 199.871094 151.4375 199.546875 151.925781 C 199.222656 152.410156 198.851562 152.859375 198.441406 153.273438 C 198.027344 153.683594 197.578125 154.054688 197.09375 154.378906 C 196.605469 154.703125 196.09375 154.976562 195.554688 155.199219 C 195.015625 155.421875 194.460938 155.589844 193.886719 155.703125 C 193.3125 155.820312 192.734375 155.875 192.152344 155.875 C 191.570312 155.875 190.988281 155.820312 190.417969 155.703125 C 189.84375 155.589844 189.289062 155.421875 188.75 155.199219 C 188.210938 154.976562 187.699219 154.703125 187.210938 154.378906 C 186.726562 154.054688 186.277344 153.683594 185.863281 153.273438 C 185.453125 152.859375 185.082031 152.410156 184.757812 151.925781 C 184.433594 151.4375 184.160156 150.925781 183.9375 150.386719 C 183.714844 149.847656 183.546875 149.292969 183.429688 148.71875 C 183.316406 148.144531 183.261719 147.566406 183.261719 146.984375 C 183.261719 146.402344 183.316406 145.820312 183.429688 145.25 C 183.546875 144.675781 183.714844 144.121094 183.9375 143.582031 C 184.160156 143.042969 184.433594 142.53125 184.757812 142.042969 C 185.082031 141.558594 185.453125 141.109375 185.863281 140.695312 C 186.277344 140.285156 186.726562 139.914062 187.210938 139.589844 C 187.699219 139.265625 188.210938 138.992188 188.75 138.769531 C 189.289062 138.546875 189.84375 138.378906 190.417969 138.261719 C 190.988281 138.148438 191.570312 138.09375 192.152344 138.09375 C 192.734375 138.09375 193.3125 138.148438 193.886719 138.261719 C 194.460938 138.378906 195.015625 138.546875 195.554688 138.769531 C 196.09375 138.992188 196.605469 139.265625 197.09375 139.589844 C 197.578125 139.914062 198.027344 140.285156 198.441406 140.695312 C 198.851562 141.109375 199.222656 141.558594 199.546875 142.042969 C 199.871094 142.53125 200.144531 143.042969 200.367188 143.582031 C 200.589844 144.121094 200.757812 144.675781 200.871094 145.25 C 200.988281 145.820312 201.042969 146.402344 201.042969 146.984375 Z M 201.042969 146.984375 "/><g clip-rule="nonzero" clip-path="url(#e32d11ce02)"><path style=" stroke:none;fill-rule:nonzero;fill:#020000;fill-opacity:1;" d="M 268.730469 35.746094 L 156.949219 0 L 40.449219 35.746094 L 39.359375 36.292969 L 40.449219 36.835938 L 89.988281 60.425781 C 89.988281 60.972656 89.808594 61.515625 89.808594 62.242188 L 89.808594 81.476562 C 107.953125 69.5 131 63.511719 154.40625 63.511719 C 176.183594 63.511719 200.316406 67.867188 219.007812 80.023438 L 219.007812 62.058594 C 219.007812 61.695312 219.007812 61.152344 219.007812 60.789062 L 268.546875 36.65625 L 269.636719 36.109375 Z M 268.730469 35.746094 "/></g><path style=" stroke:none;fill-rule:nonzero;fill:#ffffff;fill-opacity:1;" d="M 58.050781 35.566406 C 62.226562 36.292969 58.050781 43.730469 58.050781 43.730469 C 58.050781 43.730469 54.058594 36.292969 58.050781 35.566406 Z M 58.050781 35.566406 "/><path style=" stroke:none;fill-rule:nonzero;fill:#ff914d;fill-opacity:1;" d="M 58.050781 43.550781 L 62.40625 97.988281 L 53.878906 97.988281 Z M 58.050781 43.550781 "/></g></g></g></svg>